<svg width="303" height="138" viewBox="0 0 303 138" fill="none" xmlns="http://www.w3.org/2000/svg">
<path fill-rule="evenodd" clip-rule="evenodd" d="M62.4941 98.4199H59.2058C51.3095 98.4199 45.3288 103.183 43.9558 110.273L52.3414 111.609C53.4889 108.231 56.1249 105.928 59.4578 105.775C60.0896 105.731 60.7237 105.731 61.3555 105.775C66.3133 105.951 68.552 108.311 68.552 114.133C67.471 114.133 66.4293 114.127 65.425 114.122C57.7029 114.078 52.1924 114.047 48.0151 116.781C44.1605 119.305 42.5059 122.103 42.5059 126.525C42.5059 132.927 47.526 137.999 55.6268 137.999H56.7417C62.4644 137.999 67.0843 135.789 68.9641 133.121V137.216H77.4179V114.304C77.4238 105.466 72.6528 98.4199 62.4941 98.4199ZM57.3317 130.582C53.738 130.479 51.6564 128.414 51.6564 125.804C51.6564 123.642 52.6379 122.568 53.9367 121.832C55.2976 121.044 57.0649 120.773 59.8136 120.676C60.2693 120.66 60.7101 120.643 61.1488 120.626C63.2543 120.546 65.3106 120.467 68.7091 120.467C68.7091 126.94 64.5965 130.214 59.4875 130.561C58.7698 130.607 58.0502 130.614 57.3317 130.582Z" fill="#007DFB"/>
<path d="M86.5215 98.4199H99.6972L110.321 128.104L120.863 98.4199H133.577V137.999H125.126V107.742L114.119 137.996H105.436L94.4265 107.907V137.999H86.5215V98.4199Z" fill="#007DFB"/>
<path d="M190.2 98.4199H220.096V137.999H210.838V106.761H198.651C198.57 112.321 198.412 119.765 198.254 123.935C197.934 134.32 194.969 137.999 186.293 137.999H182.148V129.66H184.459C188.365 129.66 189.641 127.859 189.883 122.216C190.122 116.166 190.2 104.145 190.2 98.4199Z" fill="#007DFB"/>
<path d="M302.066 98.4199H267.154V106.759H280.059V137.999H289.163V106.759H302.066V98.4199Z" fill="#007DFB"/>
<path fill-rule="evenodd" clip-rule="evenodd" d="M265.633 117.187V120.777L236.759 120.792V121.385C236.759 126.809 241.038 130.544 245.815 130.74C246.504 130.785 247.195 130.785 247.884 130.74C250.936 130.589 254.747 129.061 256.746 125.073L264.922 126.5C263.036 132.859 256.636 137.728 248.181 137.962L247.786 137.973C247.237 137.989 246.939 137.998 246.64 137.999C246.283 138 245.925 137.99 245.141 137.967L244.953 137.962C235.244 137.71 227.976 130.749 227.723 120.409C227.673 118.329 227.673 117.694 227.723 116.175C228.077 105.781 234.986 98.4199 245.815 98.4199H247.782C257.841 98.4199 265.633 104.82 265.633 117.187ZM247.931 105.645C247.173 105.594 246.412 105.594 245.655 105.645V105.642C240.981 105.897 237.261 109.003 236.804 113.617H256.58C256.173 108.449 251.945 105.847 247.931 105.645Z" fill="#007DFB"/>
<path fill-rule="evenodd" clip-rule="evenodd" d="M180.591 114.816C180.383 105.533 172.777 98.4199 162.722 98.4199H159.077C149.021 98.4199 141.415 105.547 141.204 114.867C141.153 117.457 141.153 118.965 141.204 121.552C141.415 130.889 149.021 137.999 159.077 137.999H162.722C172.777 137.999 180.383 130.889 180.591 121.552C180.645 118.965 180.645 117.406 180.591 114.816ZM171.408 121.077C171.299 126.5 167.292 130.179 161.901 130.449C161.234 130.503 160.564 130.503 159.898 130.449C154.452 130.179 150.5 126.5 150.391 121.077C150.337 118.823 150.337 117.543 150.391 115.289C150.5 109.922 154.452 106.239 159.898 105.972C160.564 105.916 161.235 105.916 161.901 105.972C167.292 106.239 171.299 109.922 171.408 115.342C171.462 117.596 171.462 118.823 171.408 121.077Z" fill="#007DFB"/>
<path d="M19.9979 130.384C23.7599 129.85 26.5597 127.414 27.6063 123.851L36.4299 125.086C34.7059 132.623 28.1878 137.999 19.7566 137.999H17.2534C7.56334 137.999 0.231131 130.889 0.0305266 121.552C-0.0101755 118.965 -0.0101755 117.456 0.0305266 114.867C0.239853 105.533 7.57207 98.4199 17.2621 98.4199H19.7653C28.0308 98.4199 34.4937 103.599 36.3718 110.875L27.6499 112.598C26.5597 108.862 23.5448 106.403 19.5414 105.96C18.7676 105.887 17.9885 105.892 17.2155 105.975C12.4476 106.495 8.98793 110.213 8.88907 115.3C8.83674 117.554 8.83674 118.834 8.88907 121.089C8.98793 126.128 12.2819 129.716 16.9627 130.384C17.9698 130.524 18.9908 130.524 19.9979 130.384Z" fill="#007DFB"/>
<path d="M158.386 21.646L150.422 29.4944C149.381 30.5211 147.667 30.5211 146.626 29.4944L129.285 12.383C128.243 11.3563 128.243 9.66796 129.285 8.64128L137.272 0.770015C138.314 -0.256672 140.027 -0.256672 141.069 0.770015L158.433 17.8815C159.451 18.931 159.451 20.6193 158.386 21.646ZM161.396 24.6119L129.633 55.9145C128.591 56.9412 128.591 58.6295 129.633 59.6562L137.458 67.3677C138.499 68.3944 140.213 68.3944 141.254 67.3677L173.018 36.0652C174.06 35.0385 174.06 33.3502 173.018 32.3235L165.193 24.6119C164.151 23.5624 162.461 23.5624 161.396 24.6119Z" fill="#007DFB"/>
</svg>
