<svg fill="none" height="91" viewBox="0 0 198 91" width="198" xmlns="http://www.w3.org/2000/svg"><g fill="#007dfb"><path clip-rule="evenodd" d="m41.0793 64.8033h-2.1401c-5.1392 0-9.0317 3.0912-9.9252 7.6925l5.4576.8668c.7469-2.1918 2.4624-3.6868 4.6316-3.786.4112-.0287.8239-.0287 1.2351 0 3.2267.1145 4.6837 1.6458 4.6837 5.4242-.7036 0-1.3815-.0038-2.0351-.0074-5.0259-.0282-8.6123-.0482-11.331 1.7258-2.5087 1.6381-3.5856 3.4539-3.5856 6.3235 0 4.1546 3.2673 7.4462 8.5395 7.4462h.7257c3.7245 0 6.7313-1.4338 7.9547-3.1655v2.6577h5.502v-14.8696c.0039-5.7354-3.1012-10.3082-9.7129-10.3082zm-3.3598 20.8723c-2.339-.0668-3.6937-1.4071-3.6937-3.1006 0-1.4034.6388-2.1002 1.4841-2.5776.8857-.5117 2.0359-.6873 3.8249-.7504.2965-.0105.5834-.0214.8689-.0323 1.3704-.0522 2.7087-.1032 4.9206-.1032 0 4.2004-2.6767 6.3255-6.0018 6.5508-.4671.0295-.9354.034-1.403.0133z" fill-rule="evenodd"/><path d="m56.7168 64.8033h8.5752l6.9141 19.2642 6.8612-19.2642h8.2747v25.6856h-5.5001v-19.636l-7.1636 19.634h-5.6512l-7.1655-19.5266v19.5286h-5.1448z"/><path d="m124.195 64.8033h19.458v25.6856h-6.026v-20.2722h-7.932c-.052 3.6083-.155 8.4393-.258 11.1451-.208 6.7395-2.138 9.1271-7.784 9.1271h-2.698v-5.4114h1.504c2.542 0 3.373-1.169 3.53-4.831.155-3.9264.206-11.7275.206-15.4432z"/><path d="m197.001 64.8033h-22.722v5.4122h8.399v20.2734h5.925v-20.2734h8.398z"/><path clip-rule="evenodd" d="m173.29 76.9824v2.3299l-18.793.0096v.3852c0 3.5199 2.785 5.9441 5.894 6.0712.449.0289.898.0289 1.346 0 1.987-.0982 4.467-1.0898 5.769-3.6778l5.321.9262c-1.228 4.1265-5.393 7.2863-10.896 7.4384l-.257.0073c-.357.0103-.552.0159-.746.0165-.233.0007-.466-.0059-.975-.0204l-.123-.0034c-6.319-.1637-11.049-4.681-11.214-11.3916-.032-1.3497-.032-1.7618 0-2.7477.231-6.7452 4.727-11.5225 11.775-11.5225h1.28c6.547 0 11.619 4.1534 11.619 12.1791zm-11.522-7.4904c-.493-.0327-.988-.0327-1.481 0v-.0019c-3.042.1656-5.463 2.1816-5.761 5.1759h12.871c-.265-3.3543-3.017-5.043-5.629-5.174z" fill-rule="evenodd"/><path clip-rule="evenodd" d="m117.941 75.4441c-.136-6.0248-5.086-10.6408-11.631-10.6408h-2.372c-6.5443 0-11.4946 4.6256-11.6319 10.6736-.0331 1.6807-.0331 2.6597 0 4.3384.1373 6.0596 5.0876 10.6736 11.6319 10.6736h2.372c6.545 0 11.495-4.614 11.631-10.6736.035-1.6787.035-2.6905 0-4.3712zm-5.977 4.0628c-.071 3.5194-2.679 5.9074-6.188 6.0827-.434.0347-.87.0347-1.304 0-3.544-.1753-6.1162-2.5633-6.1871-6.0827-.0351-1.4628-.0351-2.2935 0-3.7563.0709-3.4827 2.6431-5.8726 6.1871-6.0461.434-.0366.871-.0366 1.304 0 3.509.1735 6.117 2.5634 6.188 6.0808.035 1.4628.035 2.2588 0 3.7216z" fill-rule="evenodd"/><path d="m13.4215 85.5472c2.4485-.3469 4.2707-1.9273 4.9518-4.2401l5.7427.8017c-1.122 4.8916-5.3642 8.3801-10.8515 8.3801h-1.6292c-6.30658 0-11.078622-4.614-11.209182-10.6736-.026491-1.6787-.026491-2.6578 0-4.3384.136236-6.0576 4.908282-10.6736 11.214882-10.6736h1.6291c5.3795 0 9.5858 3.3613 10.8081 8.0833l-5.6765 1.1178c-.7095-2.4246-2.6717-4.0204-5.2772-4.3076-.5037-.0477-1.0108-.0445-1.5138.0097-3.10315.3372-5.35481 2.7503-5.41915 6.0518-.03406 1.4628-.03406 2.2935 0 3.7564.06434 3.2706 2.20815 5.5988 5.25455 6.0325.6555.091 1.32.091 1.9754 0z"/><path d="m103.49 14.9782-5.1837 5.0934c-.6781.6663-1.7931.6663-2.4711 0l-11.2857-11.10486c-.678-.66629-.678-1.76197 0-2.42826l5.1984-5.10825c.678-.666292 1.793-.666292 2.4711 0l11.301 11.10487c.663.6811.663 1.7768-.03 2.4431zm1.958 1.9248-20.6724 20.3145c-.6781.6663-.6781 1.762 0 2.4283l5.0928 5.0046c.678.6663 1.7931.6663 2.4711 0l20.6725-20.3145c.678-.6663.678-1.762 0-2.4283l-5.093-5.0046c-.678-.6811-1.778-.6811-2.471 0z"/></g></svg>