<svg>
	<symbol id="logo-icon" viewBox="0 0 44 43" xmlns="http://www.w3.org/2000/svg">
		<path fill-rule="evenodd" clip-rule="evenodd" d="M25.8735 35.1948H29.2948C29.5086 35.1948 29.5086 35.1948 29.5086 34.984V32.2443C29.5086 32.0336 29.5086 32.0336 29.2948 32.0336H25.8735C25.6597 32.0336 25.6597 32.0336 25.6597 32.2443V34.984C25.6597 35.1948 25.6597 35.1948 25.8735 35.1948ZM8.33939 32.6658H10.6915C10.6915 32.6658 10.9054 32.6658 10.9054 32.455V30.5583C10.9054 30.5583 10.9054 30.3476 10.6915 30.3476H8.33939C8.33939 30.3476 8.12556 30.3476 8.12556 30.5583L8.33939 32.6658C8.12556 32.6658 8.12556 32.455 8.33939 32.6658ZM24.1629 35.827H21.1692C21.1692 35.827 20.9554 35.827 20.9554 36.0378V38.5667C20.9554 38.5667 20.9554 38.7775 21.1692 38.7775H24.1629C24.1629 38.7775 24.3767 38.7775 24.3767 38.5667L24.1629 35.827C24.3767 35.827 24.3767 36.0377 24.1629 35.827ZM39.3448 17.0705H41.9108C41.9108 17.0705 42.1246 17.0705 42.1246 16.8598V14.7523C42.1246 14.7523 42.1246 14.5415 41.9108 14.5415H39.3448C39.3448 14.5415 39.131 14.5415 39.131 14.7523L39.3448 17.0705C39.3448 17.0705 39.3448 16.8598 39.3448 17.0705ZM34.6406 21.9177H38.0618C38.0618 21.9177 38.2757 21.9177 38.2757 21.7069V18.9672C38.2757 18.9672 38.2757 18.7565 38.0618 18.7565H34.6406C34.6406 18.7565 34.4267 18.7565 34.4267 18.9672L34.6406 21.9177C34.6406 21.9177 34.4267 21.7069 34.6406 21.9177ZM36.3512 32.6658H38.4895C38.4895 32.6658 38.7033 32.6658 38.7033 32.455V30.5583C38.7033 30.5583 38.7033 30.3476 38.4895 30.3476H36.3512C36.3512 30.3476 36.1374 30.3476 36.1374 30.5583L36.3512 32.6658C36.1374 32.6658 36.1374 32.6658 36.3512 32.6658ZM31.0054 28.6616H34.2129C34.2129 28.6616 34.4267 28.6616 34.4267 28.4509V26.1326C34.4267 26.1326 34.4267 25.9219 34.2129 25.9219H31.0054C31.0054 25.9219 30.7916 25.9219 30.7916 26.1326L31.0054 28.6616ZM16.2511 31.8228H19.4586C19.4586 31.8228 19.6724 31.8228 19.6724 31.6121V29.2938C19.6724 29.2938 19.6724 29.0831 19.4586 29.0831H16.2511C16.2511 29.0831 16.0373 29.0831 16.0373 29.2938L16.2511 31.8228C16.0373 31.8228 16.0373 31.6121 16.2511 31.8228ZM1.28298 29.7153H4.49044C4.49044 29.7153 4.70427 29.7153 4.70427 29.5046V27.1864C4.70427 27.1864 4.70427 26.9756 4.49044 26.9756H1.28298C1.28298 26.9756 1.06915 26.9756 1.06915 27.1864L1.28298 29.7153C1.06915 29.7153 1.06915 29.5046 1.28298 29.7153ZM4.9181 16.649H7.6979C7.6979 16.649 7.91173 16.649 7.91173 16.4383V14.3308C7.91173 14.3308 7.91173 14.1201 7.6979 14.1201H4.9181C4.9181 14.1201 4.70427 14.1201 4.70427 14.3308L4.9181 16.649C4.70427 16.649 4.70427 16.649 4.9181 16.649ZM16.8926 24.0252H20.7416C20.7416 24.0252 20.9554 24.0252 20.9554 23.8144V20.6532C20.9554 20.4425 20.9554 20.4425 20.7416 20.4425H16.8926C16.8926 20.4425 16.6788 20.4425 16.6788 20.6532L16.8926 24.0252C16.8926 24.0252 16.6788 23.8144 16.8926 24.0252ZM8.55322 22.3392H12.1883C12.1883 22.3392 12.4022 22.3392 12.4022 22.1284V19.8102C12.4022 19.8102 12.4022 19.5995 12.1883 19.5995H8.55322C8.55322 19.5995 8.33939 19.5995 8.33939 19.8102L8.55322 22.3392C8.33939 22.3392 8.33939 22.1284 8.55322 22.3392ZM25.0182 25.9219H28.4395C28.4395 25.9219 28.6533 25.9219 28.6533 25.7111V22.3392C28.6533 22.3392 28.6533 22.1284 28.4395 22.1284H25.0182C25.0182 22.1284 24.8043 22.1284 24.8043 22.3392L25.0182 25.9219C25.0182 25.9219 25.0182 25.7111 25.0182 25.9219ZM25.6597 17.492H30.1501C30.1501 17.492 30.3639 17.492 30.3639 17.2813V13.9093C30.3639 13.9093 30.3639 13.6986 30.1501 13.6986H25.6597C25.6597 13.6986 25.4458 13.6986 25.4458 13.9093L25.6597 17.492ZM10.4777 13.4878H14.3266C14.3266 13.4878 14.5405 13.4878 14.5405 13.2771V11.1696C14.5405 11.1696 14.5405 10.9588 14.3266 10.9588H10.4777C10.4777 10.9588 10.2639 10.9588 10.2639 11.1696L10.4777 13.4878C10.2639 13.4878 10.2639 13.2771 10.4777 13.4878ZM16.6788 10.7481H19.6724C19.6724 10.7481 19.8862 10.7481 19.8862 10.5374V7.79764C19.8862 7.79764 19.8862 7.58689 19.6724 7.58689H16.6788C16.6788 7.58689 16.465 7.58689 16.465 7.79764L16.6788 10.7481C16.6788 10.7481 16.465 10.7481 16.6788 10.7481ZM19.0309 2.95046H21.8107H22.0245V1.05374C22.0245 1.05374 22.0245 1.05374 21.8107 1.05374H19.0309H18.8171L19.0309 2.95046C18.8171 2.95046 18.8171 2.95046 19.0309 2.95046ZM23.3075 6.53316H26.515C26.515 6.53316 26.7288 6.53316 26.7288 6.32241V4.63644C26.7288 4.63644 26.7288 4.42569 26.515 4.42569H23.3075C23.3075 4.42569 23.0937 4.42569 23.0937 4.63644L23.3075 6.53316C23.3075 6.53316 23.0937 6.32241 23.3075 6.53316ZM37.848 26.9756H39.7725C39.9863 26.9756 40.2001 26.7649 40.2001 26.5541V25.5004C40.2001 25.2896 39.9863 25.0789 39.7725 25.0789H37.848C37.6342 25.0789 37.4203 25.2896 37.4203 25.5004V26.5541C37.4203 26.7649 37.6342 26.9756 37.848 26.9756ZM29.7224 10.7481H32.0746C32.5022 10.7481 32.7161 10.5374 32.7161 10.1159V8.64063C32.7161 8.21914 32.5022 8.00839 32.0746 8.00839H29.7224C29.2948 8.00839 29.081 8.21914 29.081 8.64063V10.1159C29.081 10.5374 29.2948 10.7481 29.7224 10.7481ZM10.9054 8.42988H13.0437C13.4713 8.42988 13.6852 8.21914 13.6852 7.79764V6.53316C13.6852 6.11166 13.4713 5.90092 13.0437 5.90092H10.9054C10.6915 6.11167 10.2639 6.32241 10.2639 6.53316V7.79764C10.2639 8.21914 10.6915 8.42988 10.9054 8.42988ZM2.7798 22.3392H4.70427C4.9181 22.3392 5.34576 22.1284 5.34576 21.7069V20.6532C5.34576 20.4425 5.13193 20.021 4.70427 20.021H2.7798C2.56597 20.021 2.13831 20.2317 2.13831 20.6532V21.9177C2.35214 22.1284 2.56597 22.3392 2.7798 22.3392ZM20.1001 27.8186V26.9756H26.9427V29.0831H24.3767C24.1629 29.0831 23.949 29.2938 23.949 29.5046V32.6658H22.666V28.0294C22.666 27.8186 22.4522 27.6079 22.2384 27.6079H20.1001V27.8186ZM11.9745 30.1368H14.7543V34.141C14.7543 34.3518 14.9681 34.5625 15.182 34.5625H17.3203V37.0915H15.182C14.9681 37.0915 14.7543 37.3022 14.7543 37.513V41.3064C14.9681 41.9387 15.182 42.1494 15.3958 42.1494H20.9554C21.1692 42.1494 21.3831 41.9387 21.3831 41.7279V39.8312H24.8043C25.0182 39.8312 25.232 39.6205 25.232 39.4097V36.2485H29.9363C30.1501 36.2485 30.3639 36.0377 30.3639 35.827V32.0336H33.1437V33.5088H32.2884C32.0746 33.5088 31.8608 33.7195 31.8608 33.9303V36.67C31.8608 36.8807 32.0746 37.0915 32.2884 37.0915H36.3512C36.565 37.0915 36.7789 36.8807 36.7789 36.67V33.9303H39.3448C39.5587 33.9303 39.7725 33.7195 39.7725 33.5088V29.9261C39.7725 29.7153 39.5587 29.5046 39.3448 29.5046H35.4959V25.7111C35.4959 25.5004 35.282 25.2896 35.0682 25.2896H29.9363V22.3392H32.9299V22.9714C32.9299 23.1822 33.1437 23.3929 33.3576 23.3929H39.5587C39.7725 23.3929 39.9863 23.1822 39.9863 22.9714V18.1242H42.9799C43.1938 18.1242 43.4076 17.9135 43.4076 17.7028V14.1201C43.4076 13.9093 43.1938 13.6986 42.9799 13.6986H41.2693V10.7481C41.2693 10.5374 41.0555 10.3266 40.8416 10.3266H36.3512C36.1374 10.3266 35.9235 10.5374 35.9235 10.7481V14.1201C35.9235 14.3308 36.1374 14.5415 36.3512 14.5415H37.4203V16.649H34.6406V13.2771C34.6406 13.0663 34.4267 12.8556 34.2129 12.8556H24.5905C24.3767 12.8556 24.3767 13.0663 24.3767 13.0663V14.1201H17.1064V12.4341H21.8107C22.0245 12.4341 22.2384 12.2233 22.2384 12.0126V10.7481H27.1565C27.5841 10.7481 27.798 10.5374 27.798 10.1159V3.79345C27.798 3.5827 27.5841 3.37195 27.3703 3.37195H23.949V0.421494C23.949 0.210747 23.7352 0 23.5214 0H18.1756C17.9618 0 17.7479 0.210747 17.7479 0.421494V3.37195C17.7479 3.5827 17.9618 3.79345 18.1756 3.79345H19.0309V6.32241H15.8235C15.6096 6.32241 15.3958 6.53316 15.3958 6.74391V9.69437H9.62238C9.40854 9.69437 9.19471 9.90511 9.19471 10.1159V10.7481H6.20109V8.42988C6.20109 8.21914 5.98726 8.00839 5.77343 8.00839H1.92448C1.49681 8.00839 1.28298 8.21914 1.28298 8.42988V10.5374C1.28298 10.7481 1.49681 10.9588 1.71064 10.9588H3.63512V17.0705C3.63512 17.2813 3.84895 17.492 4.06278 17.492H9.19471C9.40855 17.492 9.62238 17.2813 9.62238 17.0705V16.649H16.0373V18.7565H7.6979C7.27024 18.5457 7.05641 18.7565 7.05641 18.9672V25.2896C7.05641 25.5004 7.27024 25.7111 7.48407 25.7111H10.4777V27.6079H6.41492V26.3434C6.41492 26.1326 6.20109 25.9219 5.98726 25.9219H0.427661C0.213831 25.9219 0 26.1326 0 26.3434V30.1368C0 30.3476 0.213831 30.5583 0.427661 30.5583H4.27661V33.298C4.27661 33.5088 4.49044 33.7195 4.70427 33.7195H6.20109V35.6163C6.20109 35.827 6.41492 36.0378 6.62875 36.0378H9.83621C10.05 36.0378 10.2639 35.827 10.2639 35.6163V33.7195H11.333C11.5469 33.7195 11.7607 33.5088 11.7607 33.298V30.1368H11.9745Z"/>
	</symbol>

	<symbol id="logo-letters" viewBox="0 0 84 24" xmlns="http://www.w3.org/2000/svg">
		<g opacity="0.991">
			<path fill-rule="evenodd" clip-rule="evenodd" d="M0.524723 0.267578C3.37166 0.267578 6.21861 0.267578 9.06554 0.267578C9.15513 0.303861 9.23193 0.363873 9.29589 0.447614C9.31953 6.96491 9.31953 13.4822 9.29589 19.9995C9.25659 20.0828 9.1916 20.1369 9.10098 20.1615C8.23864 20.1855 7.37626 20.1855 6.51393 20.1615C6.42533 20.1195 6.36037 20.0535 6.31901 19.9635C6.30721 14.3824 6.29537 8.80127 6.28357 3.22016C6.23892 3.11473 6.16212 3.04872 6.05322 3.02212C5.20268 2.99812 4.35214 2.99812 3.50161 3.02212C3.41301 3.06413 3.34804 3.13015 3.30669 3.22016C3.29488 8.80127 3.28306 14.3824 3.27125 19.9635C3.2299 20.0535 3.16493 20.1195 3.07634 20.1615C2.20217 20.1855 1.32801 20.1855 0.453845 20.1615C0.354137 20.1077 0.283259 20.0297 0.241211 19.9275C0.241211 13.4702 0.241211 7.0129 0.241211 0.555635C0.273454 0.500949 0.302987 0.440937 0.329809 0.3756C0.396297 0.335677 0.461269 0.29967 0.524723 0.267578Z"/>
			<path fill-rule="evenodd" clip-rule="evenodd" d="M43.988 0.267578C45.4055 0.267578 46.8231 0.267578 48.2407 0.267578C49.8227 0.512525 50.821 1.42471 51.2353 3.00412C51.2764 5.85988 51.2941 8.71644 51.2884 11.5738C51.2941 14.3724 51.2764 17.169 51.2353 19.9635C51.2023 20.0374 51.1492 20.0914 51.0758 20.1255C49.1266 20.1495 47.1775 20.1495 45.2283 20.1255C43.9171 19.8376 43.0371 19.0514 42.5881 17.767C42.5357 17.5904 42.5002 17.4104 42.4818 17.2269C42.4581 14.2264 42.4581 11.2257 42.4818 8.22516C42.698 6.89264 43.4245 5.97446 44.6613 5.47061C44.9594 5.3641 45.2666 5.30411 45.5827 5.29057C46.4804 5.27257 47.3781 5.26656 48.2761 5.27257C48.2821 4.73232 48.2761 4.19221 48.2584 3.65225C48.1911 3.39196 48.0436 3.19392 47.8154 3.05813C47.6269 2.95032 47.4263 2.87831 47.2129 2.84209C46.126 2.83009 45.0395 2.81808 43.9525 2.80608C43.8785 2.77756 43.8136 2.73555 43.7576 2.68006C43.6995 1.95113 43.6875 1.21898 43.7222 0.483621C43.797 0.389217 43.8856 0.317203 43.988 0.267578ZM46.5396 7.82908C47.1183 7.82908 47.6974 7.82908 48.2761 7.82908C48.2761 11.0937 48.2761 14.3584 48.2761 17.623C47.697 17.629 47.1183 17.623 46.5396 17.605C46.1274 17.549 45.8028 17.3509 45.565 17.0109C45.5413 16.9389 45.5179 16.8669 45.4941 16.7949C45.4704 14.0823 45.4704 11.3698 45.4941 8.65724C45.6022 8.31939 45.8205 8.08534 46.1498 7.9551C46.2827 7.90797 46.4127 7.86598 46.5396 7.82908Z"/>
			<path fill-rule="evenodd" clip-rule="evenodd" d="M66.1523 0.303585C67.7 0.297584 69.2472 0.303585 70.7949 0.321589C70.8969 0.366619 70.9618 0.444635 70.9898 0.555635C71.0135 1.22777 71.0135 1.8999 70.9898 2.57203C70.9483 2.68606 70.8718 2.76407 70.7594 2.80608C69.2355 2.83009 67.7117 2.83009 66.1878 2.80608C66.0875 2.75207 66.0106 2.67405 65.9574 2.57203C65.9337 1.8999 65.9337 1.22777 65.9574 0.555635C65.9918 0.443269 66.0567 0.359253 66.1523 0.303585Z"/>
			<path fill-rule="evenodd" clip-rule="evenodd" d="M14.2397 5.27257C15.1611 5.26655 16.0826 5.27257 17.0039 5.29057C18.2037 5.33371 19.0365 5.91583 19.5024 7.03692C19.6903 7.53565 19.7966 8.05174 19.8213 8.58522C19.8449 12.354 19.8449 16.1227 19.8213 19.8915C19.7969 19.9885 19.7437 20.0666 19.6618 20.1255C17.7856 20.185 15.9073 20.1971 14.027 20.1615C12.5407 19.8755 11.4953 19.0293 10.8907 17.623C10.821 17.412 10.7738 17.1959 10.7489 16.9749C10.7166 16.2535 10.7284 15.5334 10.7843 14.8145C11.0165 13.6032 11.6722 12.721 12.7512 12.1679C14.1047 11.6856 15.4455 11.1755 16.7735 10.6376C16.7972 10.5896 16.8208 10.5416 16.8444 10.4936C16.8681 9.88148 16.8681 9.26936 16.8444 8.65724C16.7606 8.29601 16.5421 8.06197 16.1888 7.9551C15.5686 7.73988 14.978 7.79991 14.4169 8.13513C14.2668 8.26616 14.1664 8.4282 14.1156 8.62123C14.1038 9.22136 14.092 9.82146 14.0802 10.4216C14.0521 10.4967 14.0108 10.5628 13.9561 10.6196C13.0732 10.6789 12.1873 10.691 11.2982 10.6556C11.1861 10.6023 11.1212 10.5123 11.1033 10.3856C11.0797 9.67743 11.0797 8.96931 11.1033 8.26116C11.3246 6.87013 12.0865 5.92793 13.3891 5.4346C13.6731 5.35401 13.9566 5.3 14.2397 5.27257ZM16.8621 13.6982C16.9328 14.9339 16.9564 16.1822 16.933 17.443C16.2344 17.4588 15.5374 17.4407 14.8421 17.389C13.9056 16.948 13.628 16.2339 14.0093 15.2465C14.2705 14.837 14.619 14.531 15.0548 14.3284C15.6647 14.1278 16.2671 13.9178 16.8621 13.6982Z"/>
			<path fill-rule="evenodd" clip-rule="evenodd" d="M24.309 23.7262C23.4349 23.7262 22.5607 23.7262 21.6865 23.7262C21.5899 23.6697 21.5249 23.5857 21.4916 23.4742C21.468 17.509 21.468 11.5438 21.4916 5.57863C21.5334 5.39812 21.6456 5.29611 21.8283 5.27257C23.6121 5.24855 25.3958 5.24855 27.1796 5.27257C28.5211 5.41695 29.4838 6.1071 30.0679 7.34298C30.1341 7.53281 30.1932 7.72487 30.2451 7.91909C30.3035 11.0268 30.3153 14.1354 30.2805 17.2449C30.0501 18.5595 29.3236 19.4657 28.101 19.9635C27.9148 20.0228 27.7258 20.0708 27.534 20.1075C26.5181 20.1255 25.5022 20.1315 24.4862 20.1255C24.4921 21.2658 24.4862 22.406 24.4685 23.5462C24.4201 23.6132 24.3669 23.6732 24.309 23.7262ZM24.4862 7.81107C25.1258 7.79555 25.7637 7.81355 26.3999 7.86508C26.8201 7.95618 27.1095 8.20221 27.2682 8.60323C27.2918 11.3398 27.2918 14.0763 27.2682 16.8129C27.1095 17.2139 26.8201 17.4599 26.3999 17.551C25.7637 17.6025 25.1258 17.6205 24.4862 17.605C24.4862 14.3404 24.4862 11.0757 24.4862 7.81107Z"/>
			<path fill-rule="evenodd" clip-rule="evenodd" d="M35.4472 5.27257C36.3686 5.26655 37.29 5.27257 38.2114 5.29057C39.4791 5.36622 40.3356 6.00837 40.7807 7.21695C40.9179 7.65041 41.0008 8.09448 41.0288 8.54922C41.0525 12.33 41.0525 16.1107 41.0288 19.8915C41.0044 19.9885 40.9512 20.0666 40.8693 20.1255C39.0049 20.185 37.1383 20.1971 35.27 20.1615C33.7645 19.892 32.7072 19.0459 32.0982 17.623C32.0285 17.412 31.9813 17.1959 31.9564 16.9749C31.9246 16.2536 31.9365 15.5335 31.9918 14.8145C32.1836 13.8662 32.6502 13.0921 33.3917 12.492C33.5455 12.3778 33.7109 12.2818 33.8878 12.2039C35.2109 11.7118 36.5341 11.2198 37.857 10.7276C37.9608 10.6823 38.0257 10.6043 38.0519 10.4936C38.0757 9.86949 38.0757 9.24534 38.0519 8.62123C37.8942 8.22144 37.605 7.97541 37.1837 7.88308C36.6269 7.74773 36.1074 7.83174 35.6243 8.13513C35.4743 8.26616 35.3739 8.4282 35.3231 8.62123C35.3113 9.22136 35.2995 9.82146 35.2877 10.4216C35.2596 10.4967 35.2182 10.5628 35.1636 10.6196C34.2807 10.6789 33.3948 10.691 32.5057 10.6556C32.3936 10.6023 32.3287 10.5123 32.3108 10.3856C32.2872 9.68945 32.2872 8.99329 32.3108 8.29717C32.5217 6.89134 33.2836 5.93715 34.5966 5.4346C34.8806 5.35401 35.1641 5.3 35.4472 5.27257ZM38.0696 13.6982C38.1402 14.9339 38.1639 16.1822 38.1405 17.443C37.5026 17.449 36.8647 17.443 36.2268 17.425C35.2475 17.1123 34.8872 16.4461 35.1459 15.4266C35.3763 14.9525 35.7247 14.5984 36.1914 14.3644C36.8222 14.1448 37.4484 13.9227 38.0696 13.6982Z"/>
			<path fill-rule="evenodd" clip-rule="evenodd" d="M56.387 5.27257C57.3084 5.26655 58.2298 5.27257 59.1512 5.29057C60.4678 5.35635 61.336 6.02249 61.756 7.28897C61.8676 7.65289 61.9385 8.02499 61.9686 8.40519C61.9924 12.246 61.9924 16.0867 61.9686 19.9275C61.9289 20.004 61.8758 20.07 61.8091 20.1255C59.9447 20.185 58.0781 20.1971 56.2098 20.1615C55.4783 20.0598 54.8283 19.7717 54.2606 19.2973C53.7421 18.855 53.3466 18.3209 53.0734 17.695C53.0096 17.5195 52.9621 17.3395 52.9317 17.1549C52.9079 16.3988 52.9079 15.6426 52.9317 14.8865C53.1436 13.6807 53.7755 12.7866 54.8276 12.2039C56.1796 11.714 57.5263 11.2099 58.8677 10.6916C58.9226 10.6479 58.9641 10.5939 58.9917 10.5296C59.0155 9.88148 59.0155 9.23335 58.9917 8.58522C58.8946 8.30635 58.7114 8.10831 58.4424 7.99111C57.9271 7.79112 57.4076 7.7791 56.8831 7.9551C56.551 8.07641 56.3444 8.31045 56.2629 8.65724C56.2512 9.25737 56.2392 9.85746 56.2275 10.4576C56.1998 10.5219 56.1584 10.5759 56.1034 10.6196C55.2324 10.6789 54.3581 10.6909 53.481 10.6556C53.4175 10.6274 53.3644 10.5854 53.3215 10.5296C53.263 9.71664 53.2513 8.90047 53.286 8.08112C53.5745 6.71973 54.3719 5.82556 55.6782 5.39859C55.9167 5.3404 56.1531 5.29842 56.387 5.27257ZM59.0095 13.6982C59.0449 13.6982 59.0803 13.6982 59.1158 13.6982C59.1158 14.9465 59.1158 16.1947 59.1158 17.443C58.4658 17.449 57.8162 17.443 57.1666 17.425C56.1676 17.0812 55.8189 16.391 56.1212 15.3546C56.3834 14.8481 56.7793 14.494 57.3084 14.2924C57.8828 14.1038 58.4499 13.9058 59.0095 13.6982Z"/>
			<path fill-rule="evenodd" clip-rule="evenodd" d="M83.8262 8.11713C83.8262 8.8973 83.8262 9.67743 83.8262 10.4576C83.7737 10.5407 83.7029 10.6067 83.6136 10.6556C82.763 10.6797 81.9125 10.6797 81.0619 10.6556C80.9733 10.6136 80.9085 10.5476 80.867 10.4576C80.8553 9.88148 80.8433 9.30537 80.8316 8.72926C80.7944 8.43137 80.6466 8.20935 80.3886 8.06312C79.8251 7.79545 79.246 7.75944 78.6521 7.9551C78.3289 8.05567 78.1102 8.2657 77.9965 8.58523C77.9727 11.3458 77.9727 14.1063 77.9965 16.8669C78.1077 17.172 78.3143 17.3821 78.6166 17.497C79.2347 17.7313 79.8372 17.6952 80.424 17.389C80.6611 17.2319 80.7969 17.0099 80.8316 16.7228C80.8433 16.1467 80.8553 15.5706 80.867 14.9945C80.9113 14.8908 80.9882 14.8248 81.0974 14.7965C81.9242 14.7724 82.7513 14.7724 83.5781 14.7965C83.6887 14.8313 83.7713 14.8973 83.8262 14.9945C83.8262 15.7747 83.8262 16.5548 83.8262 17.335C83.4714 18.9015 82.5146 19.8437 80.9556 20.1615C79.8216 20.1855 78.6875 20.1855 77.5535 20.1615C76.4609 20.0118 75.711 19.4177 75.3031 18.3792C75.1525 17.9596 75.0582 17.5275 75.0196 17.0829C74.9958 14.1783 74.9958 11.2738 75.0196 8.36918C75.0749 7.44348 75.4115 6.64534 76.0296 5.97471C76.5463 5.51958 77.1488 5.29155 77.837 5.29057C78.7938 5.26656 79.7507 5.26656 80.7076 5.29057C81.9518 5.40364 82.8793 6.00978 83.4895 7.10894C83.6419 7.43581 83.7542 7.7719 83.8262 8.11713Z"/>
			<path fill-rule="evenodd" clip-rule="evenodd" d="M63.6716 5.34458C64.5221 5.33857 65.3727 5.34458 66.2232 5.36258C66.32 5.37691 66.3852 5.43093 66.4181 5.52462C66.4653 9.30335 66.4887 13.0841 66.489 16.8669C66.7328 17.3544 67.1283 17.6124 67.6762 17.641C68.503 17.646 69.3302 17.634 70.157 17.605C70.2456 17.563 70.3104 17.497 70.3519 17.407C70.3636 13.4462 70.3756 9.4854 70.3873 5.52462C70.4167 5.44659 70.4699 5.39258 70.5468 5.36258C71.4328 5.33857 72.3187 5.33857 73.2047 5.36258C73.2462 5.4046 73.2873 5.44659 73.3288 5.48861C73.3525 10.3256 73.3525 15.1625 73.3288 19.9995C73.2873 20.0415 73.2462 20.0835 73.2047 20.1255C70.9132 20.1799 68.6214 20.1919 66.3295 20.1615C65.0615 19.9292 64.1699 19.2151 63.6539 18.0191C63.5632 17.7871 63.5043 17.547 63.4767 17.299C63.453 13.3862 63.453 9.47341 63.4767 5.56062C63.5249 5.46978 63.5897 5.39776 63.6716 5.34458Z"/>
		</g>
	</symbol>

	<symbol id="phone" viewBox="0 0 15 15" fill="none" xmlns="http://www.w3.org/2000/svg">
		<path d="M3.35938 0.947756L0.819719 2.19895C0.798997 2.21285 0.781851 2.23149 0.769728 2.25337C0.756705 2.27686 0.749915 2.3033 0.750005 2.33016V2.33256V3.14087C0.75 4.59974 1.03734 6.04432 1.59562 7.39215C2.15391 8.73997 2.97219 9.96463 4.00377 10.9962C5.03534 12.0278 6.26 12.8461 7.60782 13.4044C8.95564 13.9627 10.4002 14.25 11.8591 14.25L12.6674 14.25L12.6697 14.25C12.6966 14.2501 12.723 14.2433 12.7465 14.2303L13.1101 14.8862L12.7465 14.2303C12.7684 14.2181 12.7871 14.201 12.801 14.1802L14.0522 11.6406L10.4922 8.97055L8.86808 10.1885L8.64807 10.3535L8.37355 10.3372C7.40817 10.2798 6.49735 9.87039 5.81351 9.18656C5.12967 8.50273 4.72027 7.59191 4.66283 6.62653L4.64649 6.35201L4.81149 6.132L6.02949 4.50789L3.35938 0.947756Z" stroke-width="1.5"/>
	</symbol>

	<symbol id="btn-plus" viewBox="0 0 12 13" xmlns="http://www.w3.org/2000/svg">
		<path d="M7.41908 5.06679L6.13722 0.5L4.85418 5.42566L0 6.5L4.85418 7.75435L6.13722 12.5L7.3276 7.75435L12 6.5L7.41908 5.06679Z"/>
	</symbol>

	<symbol id="vk" viewBox="0 0 20 12" xmlns="http://www.w3.org/2000/svg">
		<path d="M10.8932 12C4.05996 12 0.162399 7.49549 0 0H3.42286C3.53529 5.5015 6.05871 7.83183 8.05747 8.31231V0H11.2805V4.74474C13.2542 4.54054 15.3279 2.37838 16.0275 0H19.2505C18.9869 1.23349 18.4614 2.40142 17.7069 3.43071C16.9524 4.46001 15.9852 5.32854 14.8657 5.98198C16.1153 6.57905 17.2191 7.42414 18.1041 8.4615C18.9891 9.49885 19.6353 10.7049 20 12H16.4522C16.1248 10.8751 15.4594 9.86812 14.5394 9.10528C13.6194 8.34244 12.4858 7.85766 11.2805 7.71171V12H10.8932Z"/>
	</symbol>

	<symbol id="telegram" viewBox="0 0 19 16" xmlns="http://www.w3.org/2000/svg">
		<path d="M1.48741 6.64196C6.31923 4.46465 9.54121 3.02923 11.1533 2.33571C15.7563 0.355562 16.7127 0.0115894 17.3361 0.000110115C17.4732 -0.00226689 17.7798 0.0328779 17.9784 0.199538C18.1461 0.340263 18.1922 0.530362 18.2143 0.663785C18.2364 0.797208 18.2639 1.10115 18.242 1.33864C17.9926 4.04931 16.9133 10.6274 16.3642 13.6634C16.1318 14.948 15.6744 15.3788 15.2315 15.4209C14.2689 15.5125 13.538 14.763 12.6058 14.131C11.147 13.142 10.3229 12.5263 8.90691 11.5612C7.27048 10.4458 8.33131 9.83281 9.2639 8.83097C9.50797 8.56878 13.7488 4.57916 13.8309 4.21724C13.8412 4.17197 13.8507 4.00325 13.7538 3.91415C13.6569 3.82506 13.5139 3.85553 13.4106 3.87976C13.2643 3.9141 10.9339 5.50722 6.41938 8.65912C5.7579 9.12891 5.15875 9.35781 4.62193 9.34582C4.03013 9.33259 2.89175 8.99973 2.04548 8.71522C1.00749 8.36624 0.182524 8.18174 0.254361 7.58907C0.291777 7.28038 0.702793 6.96467 1.48741 6.64196Z"/>
	</symbol>

	<symbol id="telegram-header" viewBox="0 0 24 25" fill="none" xmlns="http://www.w3.org/2000/svg">
		<path d="M3.66866 11.6629C8.23205 9.64264 11.275 8.31075 12.7976 7.66725C17.1448 5.82992 18.0481 5.51075 18.6369 5.5001C18.7664 5.4979 19.0559 5.53051 19.2435 5.68515C19.4018 5.81572 19.4454 5.99211 19.4663 6.11591C19.4871 6.23971 19.5131 6.52173 19.4924 6.74209C19.2569 9.25725 18.2375 15.3609 17.7189 18.1779C17.4995 19.3699 17.0674 19.7696 16.6492 19.8087C15.7401 19.8937 15.0498 19.1982 14.1694 18.6118C12.7916 17.6941 12.0133 17.1228 10.676 16.2273C9.13045 15.1924 10.1323 14.6236 11.0131 13.694C11.2436 13.4508 15.2489 9.74889 15.3264 9.41307C15.3361 9.37107 15.3451 9.21451 15.2536 9.13185C15.1621 9.04918 15.027 9.07745 14.9295 9.09993C14.7913 9.1318 12.5904 10.61 8.32663 13.5346C7.7019 13.9705 7.13604 14.1829 6.62904 14.1718C6.07012 14.1595 4.99498 13.8506 4.19573 13.5866C3.21541 13.2628 2.43627 13.0916 2.50412 12.5417C2.53946 12.2553 2.92764 11.9623 3.66866 11.6629Z" fill="currentColor"/>
	</symbol>


	<symbol id="dzen" viewBox="0 0 24 24" xmlns="http://www.w3.org/2000/svg">
		<path d="M23.75 11.8759V11.6241C18.5464 11.4563 16.1713 11.3304 14.2661 9.48393C12.4196 7.57875 12.2854 5.20357 12.1259 0H11.8741C11.7063 5.20357 11.5804 7.57875 9.73393 9.48393C7.82875 11.3304 5.45357 11.4646 0.25 11.6241V11.8759C5.45357 12.0437 7.82875 12.1696 9.73393 14.0161C11.5804 15.9213 11.7146 18.2964 11.8741 23.5H12.1259C12.2937 18.2964 12.4196 15.9213 14.2661 14.0161C16.1713 12.1696 18.5464 12.0354 23.75 11.8759Z"/>
	</symbol>

	<symbol id="youtube" viewBox="0 0 26 18" xmlns="http://www.w3.org/2000/svg">
		<path fill-rule="evenodd" clip-rule="evenodd" d="M23.1521 0.537629C24.2591 0.833961 25.1291 1.70391 25.4254 2.81092C25.9609 4.81538 25.9631 9 25.9631 9C25.9631 9 25.9631 13.1846 25.4254 15.1891C25.1291 16.2961 24.2591 17.1661 23.1521 17.4623C21.1477 18 13.1065 18 13.1065 18C13.1065 18 5.06538 18 3.06091 17.4623C1.95391 17.1661 1.08396 16.2961 0.787629 15.1891C0.25 13.1846 0.25 9 0.25 9C0.25 9 0.25 4.81538 0.787629 2.81092C1.08396 1.70391 1.95391 0.833961 3.06091 0.537629C5.06538 0 13.1065 0 13.1065 0C13.1065 0 21.1477 0 23.1521 0.537629ZM17.2134 9.00061L10.5332 12.8571V5.14404L17.2134 9.00061Z"/>
	</symbol>

	<symbol id="nav-arrow" viewBox="0 0 18 17" fill="none" xmlns="http://www.w3.org/2000/svg">
		<path d="M-3.27835e-07 8.5L17 8.5M17 8.5L9.88429 1M17 8.5L9.88429 16" stroke-linejoin="bevel"/>
	</symbol>

	<symbol id="nav-arrow-back" viewBox="0 0 18 17" fill="none" xmlns="http://www.w3.org/2000/svg">
		<path d="M18 8.5L1 8.5M1 8.5L8.11571 1M1 8.5L8.11571 16" stroke-linejoin="bevel"/>
	</symbol>

	<symbol id="message" viewBox="0 0 26 26" xmlns="http://www.w3.org/2000/svg">
		<path d="M21.8125 4.13757C20.6665 2.97998 19.3015 2.06216 17.797 1.43764C16.2926 0.813117 14.6789 0.4944 13.05 0.500074C6.225 0.500074 0.6625 6.06257 0.6625 12.8876C0.6625 15.0751 1.2375 17.2001 2.3125 19.0751L0.5625 25.5001L7.125 23.7751C8.9375 24.7626 10.975 25.2876 13.05 25.2876C19.875 25.2876 25.4375 19.7251 25.4375 12.9001C25.4375 9.58757 24.15 6.47507 21.8125 4.13757ZM13.05 23.1876C11.2 23.1876 9.3875 22.6876 7.8 21.7501L7.425 21.5251L3.525 22.5501L4.5625 18.7501L4.3125 18.3626C3.28468 16.7213 2.73892 14.8241 2.7375 12.8876C2.7375 7.21257 7.3625 2.58757 13.0375 2.58757C15.7875 2.58757 18.375 3.66257 20.3125 5.61257C21.2719 6.56753 22.0321 7.7034 22.5492 8.95436C23.0664 10.2053 23.33 11.5465 23.325 12.9001C23.35 18.5751 18.725 23.1876 13.05 23.1876Z"/>
	</symbol>

	<symbol id="whatsapp" viewBox="0 0 19 18" xmlns="http://www.w3.org/2000/svg">
		<path fill-rule="evenodd" clip-rule="evenodd" d="M13.3484 10.7865C13.1249 10.6748 12.0291 10.1363 11.8251 10.0613C11.6211 9.98703 11.4726 9.95028 11.3234 10.1738C11.1749 10.3958 10.7481 10.8983 10.6184 11.0468C10.4879 11.196 10.3581 11.214 10.1354 11.103C9.91261 10.9905 9.19411 10.7558 8.34286 9.99678C7.68061 9.40578 7.23286 8.67603 7.10311 8.45253C6.97336 8.22978 7.08886 8.10903 7.20061 7.99803C7.30111 7.89828 7.42336 7.73778 7.53511 7.60803C7.64686 7.47753 7.68361 7.38453 7.75786 7.23528C7.83286 7.08678 7.79536 6.95703 7.73911 6.84528C7.68361 6.73353 7.23811 5.63628 7.05211 5.19003C6.87136 4.75578 6.68761 4.81503 6.55111 4.80753C6.42061 4.80153 6.27211 4.80003 6.12361 4.80003C5.97511 4.80003 5.73361 4.85553 5.52961 5.07903C5.32486 5.30178 4.74961 5.84103 4.74961 6.93828C4.74961 8.03478 5.54761 9.09453 5.65936 9.24378C5.77111 9.39228 7.23061 11.6438 9.46636 12.609C9.99886 12.8385 10.4136 12.9758 10.7369 13.0778C11.2709 13.248 11.7569 13.224 12.1409 13.1663C12.5684 13.1025 13.4594 12.627 13.6454 12.1065C13.8306 11.586 13.8306 11.1398 13.7751 11.0468C13.7196 10.9538 13.5711 10.8983 13.3476 10.7865H13.3484ZM9.28186 16.3388H9.27886C7.95093 16.339 6.64739 15.9821 5.50486 15.3053L5.23486 15.1448L2.42836 15.8813L3.17761 13.1453L3.00136 12.8648C2.25896 11.683 1.86608 10.3154 1.86811 8.91978C1.86961 4.83228 5.19511 1.50678 9.28486 1.50678C11.2649 1.50678 13.1264 2.27928 14.5259 3.68028C15.2161 4.36772 15.7633 5.18521 16.1356 6.08545C16.5079 6.9857 16.698 7.95084 16.6949 8.92503C16.6934 13.0125 13.3679 16.3388 9.28186 16.3388V16.3388ZM15.5909 2.61603C14.7645 1.78422 13.7813 1.12468 12.6982 0.675631C11.6151 0.226579 10.4536 -0.00305719 9.28111 3.07332e-05C4.36561 3.07332e-05 0.363609 4.00128 0.362109 8.91903C0.359832 10.4841 0.77039 12.0221 1.55236 13.3778L0.287109 18L5.01511 16.7595C6.32301 17.4721 7.78868 17.8455 9.27811 17.8455H9.28186C14.1974 17.8455 18.1994 13.8443 18.2009 8.92578C18.2045 7.75374 17.9757 6.59261 17.5277 5.50956C17.0797 4.42651 16.4214 3.44303 15.5909 2.61603"/>
	</symbol>

	<symbol id="download" viewBox="0 0 14 17" fill="none" xmlns="http://www.w3.org/2000/svg">
		<path d="M6.95961 0.800049V12M6.95961 12L11.7196 7.31205M6.95961 12L2.19961 7.31205M13.3996 15.7801H0.599609" stroke-width="1.2" stroke-linejoin="bevel" stroke="currentColor"/>
	</symbol>

	<symbol id="footer-logo" viewBox="0 0 1320 370" xmlns="http://www.w3.org/2000/svg">
		<path fill-rule="evenodd" clip-rule="evenodd" d="M4.47732 0C49.437 0 94.397 0 139.357 0C140.771 0.572277 141.984 1.51881 142.994 2.8396C143.368 105.633 143.368 208.427 142.994 311.22C142.374 312.535 141.347 313.387 139.916 313.776C126.298 314.155 112.679 314.155 99.0607 313.776C97.6615 313.113 96.6356 312.072 95.9825 310.652C95.7962 222.625 95.6092 134.597 95.4229 46.5695C94.7177 44.9065 93.5049 43.8654 91.785 43.4459C78.3531 43.0673 64.9211 43.0673 51.4892 43.4459C50.09 44.1085 49.064 45.1497 48.411 46.5695C48.2245 134.597 48.0379 222.625 47.8513 310.652C47.1984 312.072 46.1723 313.113 44.7732 313.776C30.9681 314.155 17.1631 314.155 3.35799 313.776C1.78336 312.927 0.664032 311.697 0 310.084C0 208.238 0 106.39 0 4.54336C0.509197 3.68082 0.975585 2.73429 1.39916 1.70376C2.44917 1.07409 3.47522 0.506169 4.47732 0Z"/>
		<path fill-rule="evenodd" clip-rule="evenodd" d="M690.863 0C713.249 0 735.636 0 758.022 0C783.006 3.86341 798.772 18.2507 805.314 43.1619C805.963 88.2043 806.243 133.259 806.154 178.327C806.243 222.467 805.963 266.576 805.314 310.652C804.794 311.818 803.954 312.67 802.796 313.208C772.014 313.587 741.232 313.587 710.451 313.208C689.743 308.667 675.847 296.267 668.756 276.009C667.928 273.223 667.368 270.383 667.077 267.49C666.702 220.164 666.702 172.837 667.077 125.51C670.491 104.493 681.964 90.0114 701.496 82.0645C706.203 80.3846 711.055 79.4384 716.047 79.2249C730.224 78.9409 744.4 78.8461 758.582 78.9409C758.677 70.4198 758.582 61.901 758.302 53.3845C757.239 49.2791 754.911 46.1555 751.306 44.0138C748.329 42.3134 745.161 41.1776 741.792 40.6063C724.627 40.417 707.468 40.2277 690.303 40.0384C689.133 39.5885 688.109 38.9259 687.225 38.0507C686.307 26.5537 686.117 15.006 686.665 3.40752C687.846 1.91854 689.245 0.782703 690.863 0ZM731.159 119.263C740.298 119.263 749.443 119.263 758.582 119.263C758.582 170.755 758.582 222.246 758.582 273.738C749.437 273.832 740.298 273.738 731.159 273.454C724.65 272.569 719.523 269.446 715.768 264.083C715.393 262.947 715.023 261.811 714.648 260.675C714.273 217.892 714.273 175.109 714.648 132.325C716.355 126.997 719.803 123.305 725.002 121.251C727.101 120.508 729.155 119.845 731.159 119.263Z"/>
		<path fill-rule="evenodd" clip-rule="evenodd" d="M1040.89 0.567917C1065.33 0.473269 1089.76 0.567923 1114.21 0.851877C1115.82 1.56212 1116.84 2.79261 1117.28 4.54336C1117.66 15.1446 1117.66 25.7457 1117.28 36.3469C1116.63 38.1453 1115.42 39.3758 1113.65 40.0384C1089.58 40.417 1065.51 40.417 1041.45 40.0384C1039.87 39.1865 1038.65 37.956 1037.81 36.3469C1037.44 25.7457 1037.44 15.1446 1037.81 4.54336C1038.35 2.77108 1039.38 1.44593 1040.89 0.567917Z"/>
		<path fill-rule="evenodd" clip-rule="evenodd" d="M221.068 78.9409C235.62 78.846 250.171 78.9409 264.722 79.2248C283.669 79.9052 296.821 89.0868 304.178 106.769C307.146 114.635 308.825 122.775 309.215 131.19C309.588 190.632 309.588 250.074 309.215 309.517C308.829 311.048 307.989 312.278 306.697 313.208C277.067 314.147 247.404 314.336 217.71 313.776C194.238 309.264 177.728 295.918 168.179 273.738C167.08 270.409 166.334 267.001 165.941 263.515C165.431 252.137 165.617 240.779 166.5 229.44C170.167 210.335 180.521 196.421 197.562 187.698C218.937 180.09 240.112 172.045 261.084 163.561C261.457 162.804 261.83 162.046 262.203 161.289C262.576 151.635 262.576 141.98 262.203 132.325C260.88 126.628 257.429 122.937 251.849 121.251C242.055 117.856 232.727 118.803 223.866 124.091C221.497 126.157 219.91 128.713 219.109 131.757C218.923 141.223 218.736 150.688 218.549 160.153C218.106 161.339 217.453 162.38 216.59 163.277C202.648 164.212 188.656 164.402 174.616 163.845C172.845 163.004 171.82 161.585 171.537 159.586C171.164 148.416 171.164 137.248 171.537 126.078C175.032 104.138 187.065 89.2776 207.636 81.4965C212.12 80.2255 216.597 79.3736 221.068 78.9409ZM262.483 211.834C263.598 231.324 263.972 251.012 263.602 270.898C252.57 271.147 241.563 270.863 230.582 270.046C215.793 263.091 211.409 251.828 217.43 236.255C221.555 229.796 227.059 224.968 233.94 221.773C243.572 218.61 253.086 215.297 262.483 211.834Z"/>
		<path fill-rule="evenodd" clip-rule="evenodd" d="M380.087 370C366.281 370 352.477 370 338.671 370C337.145 369.109 336.118 367.784 335.593 366.025C335.22 271.939 335.22 177.854 335.593 83.7682C336.253 80.9212 338.025 79.3123 340.91 78.9409C369.08 78.5621 397.25 78.5621 425.419 78.9409C446.604 81.2182 461.808 92.1035 471.032 111.596C472.078 114.59 473.011 117.62 473.83 120.683C474.753 169.698 474.939 218.729 474.39 267.774C470.751 288.509 459.277 302.801 439.971 310.652C437.03 311.588 434.046 312.345 431.016 312.924C414.973 313.208 398.93 313.303 382.885 313.208C382.978 331.193 382.885 349.177 382.605 367.16C381.841 368.218 381.001 369.164 380.087 370ZM382.885 118.979C392.985 118.734 403.059 119.018 413.107 119.831C419.742 121.268 424.312 125.149 426.819 131.473C427.192 174.635 427.192 217.797 426.819 260.959C424.312 267.284 419.742 271.165 413.107 272.602C403.059 273.414 392.985 273.698 382.885 273.454C382.885 221.962 382.885 170.471 382.885 118.979Z"/>
		<path fill-rule="evenodd" clip-rule="evenodd" d="M555.983 78.9409C570.534 78.846 585.086 78.9409 599.637 79.2248C619.656 80.418 633.183 90.5463 640.213 109.609C642.379 116.445 643.688 123.449 644.13 130.622C644.505 190.253 644.505 249.885 644.13 309.517C643.744 311.048 642.905 312.278 641.612 313.208C612.168 314.147 582.69 314.336 553.185 313.776C529.41 309.526 512.713 296.179 503.095 273.738C501.995 270.409 501.249 267.001 500.856 263.515C500.354 252.139 500.541 240.781 501.416 229.44C504.444 214.484 511.813 202.273 523.523 192.809C525.952 191.007 528.564 189.493 531.358 188.266C552.252 180.504 573.148 172.743 594.04 164.981C595.68 164.265 596.704 163.035 597.119 161.289C597.494 151.446 597.494 141.601 597.119 131.757C594.628 125.452 590.061 121.571 583.407 120.115C574.614 117.98 566.41 119.305 558.781 124.091C556.412 126.157 554.826 128.713 554.024 131.757C553.838 141.223 553.651 150.688 553.465 160.153C553.021 161.339 552.368 162.38 551.506 163.277C537.563 164.212 523.571 164.402 509.531 163.845C507.761 163.004 506.735 161.585 506.453 159.586C506.08 148.606 506.08 137.626 506.453 126.646C509.783 104.473 521.816 89.423 542.551 81.4965C547.035 80.2255 551.513 79.3736 555.983 78.9409ZM597.398 211.834C598.512 231.324 598.887 251.012 598.518 270.898C588.444 270.993 578.37 270.898 568.296 270.614C552.83 265.682 547.14 255.175 551.226 239.094C554.864 231.617 560.367 226.032 567.736 222.341C577.698 218.877 587.587 215.375 597.398 211.834Z"/>
		<path fill-rule="evenodd" clip-rule="evenodd" d="M886.671 78.9409C901.222 78.846 915.774 78.9409 930.325 79.2248C951.117 80.2624 964.828 90.7689 971.46 110.744C973.223 116.484 974.343 122.353 974.818 128.35C975.193 188.928 975.193 249.506 974.818 310.084C974.192 311.291 973.352 312.332 972.3 313.208C942.856 314.147 913.378 314.336 883.873 313.776C872.321 312.172 862.057 307.628 853.091 300.146C844.903 293.169 838.658 284.745 834.343 274.873C833.335 272.105 832.585 269.265 832.104 266.355C831.729 254.428 831.729 242.502 832.104 230.576C835.451 211.558 845.43 197.455 862.046 188.266C883.397 180.538 904.664 172.587 925.848 164.413C926.715 163.723 927.37 162.872 927.807 161.857C928.182 151.635 928.182 141.412 927.807 131.19C926.273 126.791 923.38 123.667 919.132 121.819C910.994 118.665 902.79 118.475 894.506 121.251C889.262 123.164 886 126.856 884.712 132.325C884.528 141.791 884.337 151.256 884.153 160.721C883.716 161.736 883.061 162.588 882.194 163.277C868.437 164.212 854.63 164.402 840.779 163.845C839.777 163.399 838.937 162.737 838.26 161.857C837.337 149.035 837.152 136.162 837.701 123.239C842.256 101.766 854.849 87.663 875.478 80.9286C879.244 80.0108 882.977 79.3486 886.671 78.9409ZM928.086 211.834C928.646 211.834 929.206 211.834 929.765 211.834C929.765 231.522 929.765 251.21 929.765 270.898C919.501 270.993 909.242 270.898 898.984 270.614C883.207 265.191 877.7 254.306 882.474 237.959C886.615 229.97 892.867 224.385 901.222 221.205C910.295 218.231 919.249 215.108 928.086 211.834Z"/>
		<path fill-rule="evenodd" clip-rule="evenodd" d="M1320 123.807C1320 136.112 1320 148.416 1320 160.721C1319.17 162.032 1318.05 163.073 1316.64 163.845C1303.21 164.224 1289.78 164.224 1276.35 163.845C1274.95 163.182 1273.92 162.141 1273.27 160.721C1273.08 151.635 1272.89 142.548 1272.71 133.461C1272.12 128.763 1269.79 125.261 1265.71 122.955C1256.81 118.733 1247.67 118.165 1238.29 121.251C1233.18 122.837 1229.73 126.15 1227.94 131.19C1227.56 174.73 1227.56 218.271 1227.94 261.811C1229.69 266.624 1232.96 269.937 1237.73 271.75C1247.49 275.445 1257 274.877 1266.27 270.046C1270.02 267.569 1272.16 264.067 1272.71 259.54C1272.89 250.453 1273.08 241.366 1273.27 232.279C1273.97 230.643 1275.18 229.602 1276.91 229.156C1289.96 228.777 1303.03 228.777 1316.08 229.156C1317.83 229.705 1319.13 230.746 1320 232.279C1320 244.585 1320 256.889 1320 269.194C1314.4 293.902 1299.29 308.763 1274.67 313.776C1256.76 314.155 1238.85 314.155 1220.94 313.776C1203.68 311.415 1191.84 302.044 1185.4 285.664C1183.02 279.047 1181.53 272.231 1180.92 265.219C1180.55 219.406 1180.55 173.594 1180.92 127.782C1181.8 113.181 1187.11 100.593 1196.87 90.0154C1205.03 82.8369 1214.55 79.2402 1225.42 79.2249C1240.53 78.8461 1255.64 78.8461 1270.75 79.2249C1290.4 81.0082 1305.05 90.5685 1314.68 107.905C1317.09 113.06 1318.86 118.361 1320 123.807Z"/>
		<path fill-rule="evenodd" clip-rule="evenodd" d="M1001.71 80.0767C1015.14 79.9819 1028.58 80.0767 1042.01 80.3606C1043.54 80.5867 1044.57 81.4386 1045.09 82.9163C1045.83 142.516 1046.2 202.148 1046.21 261.811C1050.06 269.5 1056.3 273.571 1064.95 274.021C1078.01 274.1 1091.07 273.911 1104.13 273.454C1105.53 272.791 1106.55 271.75 1107.21 270.33C1107.39 207.859 1107.58 145.388 1107.77 82.9163C1108.23 81.6856 1109.07 80.8337 1110.29 80.3606C1124.28 79.9818 1138.27 79.9818 1152.26 80.3606C1152.92 81.0234 1153.57 81.6856 1154.22 82.3484C1154.6 158.639 1154.6 234.93 1154.22 311.22C1153.57 311.883 1152.92 312.545 1152.26 313.208C1116.07 314.066 1079.88 314.255 1043.69 313.776C1023.66 310.112 1009.58 298.849 1001.43 279.985C1000 276.326 999.071 272.539 998.634 268.626C998.259 206.912 998.259 145.198 998.634 83.4842C999.396 82.0514 1000.42 80.9155 1001.71 80.0767Z"/>
	</symbol>

	<symbol id="carousel-arrow" viewBox="0 0 25 25" fill="none" xmlns="http://www.w3.org/2000/svg">
		<path d="M25 12.5H1M1 12.5L12.3333 1M1 12.5L12.3333 24"/>
	</symbol>

	<symbol id="play" viewBox="0 0 19 24" xmlns="http://www.w3.org/2000/svg">
		<path d="M0 0L18.6267 11.8533L0 23.7067V0Z"/>
	</symbol>

	<symbol id="close" viewBox="0 0 14 14" fill="none" xmlns="http://www.w3.org/2000/svg">
		<path d="M13 1L1 13M13 13L1 1" stroke-width="1.5"/>
	</symbol>

	<symbol id="list-type" viewBox="0 0 16 17" xmlns="http://www.w3.org/2000/svg">
		<path d="M8 0.5L8.84853 7.65147L16 8.5L8.84853 9.34853L8 16.5L7.15147 9.34853L0 8.5L7.15147 7.65147L8 0.5Z"/>
	</symbol>

	<symbol id="star" viewBox="0 0 49 48" xmlns="http://www.w3.org/2000/svg">
		<path d="M24.08 3L17.255 16.83L2 19.035L13.04 29.805L10.43 45L24.08 37.83L37.73 45L35.12 29.805L46.16 19.05L30.905 16.83L24.08 3Z"/>
	</symbol>

</svg>
